<mxfile host="app.diagrams.net" agent="Mozilla/5.0 (Windows NT 10.0; Win64; x64) AppleWebKit/537.36 (KHTML, like Gecko) Chrome/135.0.0.0 Safari/537.36 Edg/135.0.0.0" version="26.0.2">
  <diagram name="第 1 页" id="0o3vf0J7doep9oHjO9D6">
    <mxGraphModel dx="719" dy="395" grid="0" gridSize="10" guides="1" tooltips="1" connect="1" arrows="1" fold="1" page="1" pageScale="1" pageWidth="827" pageHeight="1169" math="0" shadow="0">
      <root>
        <mxCell id="0" />
        <mxCell id="1" parent="0" />
        <mxCell id="T9cRB7cxZAfNw0go3Zid-5" value="" style="edgeStyle=orthogonalEdgeStyle;rounded=0;orthogonalLoop=1;jettySize=auto;html=1;endArrow=none;endFill=0;entryX=0.5;entryY=0;entryDx=0;entryDy=0;" edge="1" parent="1" source="T9cRB7cxZAfNw0go3Zid-1" target="T9cRB7cxZAfNw0go3Zid-3">
          <mxGeometry relative="1" as="geometry" />
        </mxCell>
        <mxCell id="T9cRB7cxZAfNw0go3Zid-6" style="edgeStyle=orthogonalEdgeStyle;rounded=0;orthogonalLoop=1;jettySize=auto;html=1;endArrow=none;endFill=0;" edge="1" parent="1" source="T9cRB7cxZAfNw0go3Zid-1" target="T9cRB7cxZAfNw0go3Zid-2">
          <mxGeometry relative="1" as="geometry" />
        </mxCell>
        <mxCell id="T9cRB7cxZAfNw0go3Zid-1" value="特殊作业票系统" style="rounded=0;whiteSpace=wrap;html=1;" vertex="1" parent="1">
          <mxGeometry x="344" y="140" width="230" height="30" as="geometry" />
        </mxCell>
        <mxCell id="T9cRB7cxZAfNw0go3Zid-17" value="" style="edgeStyle=orthogonalEdgeStyle;rounded=0;orthogonalLoop=1;jettySize=auto;html=1;endArrow=none;endFill=0;" edge="1" parent="1" source="T9cRB7cxZAfNw0go3Zid-2" target="T9cRB7cxZAfNw0go3Zid-10">
          <mxGeometry relative="1" as="geometry" />
        </mxCell>
        <mxCell id="T9cRB7cxZAfNw0go3Zid-23" style="edgeStyle=orthogonalEdgeStyle;rounded=0;orthogonalLoop=1;jettySize=auto;html=1;exitX=0.5;exitY=1;exitDx=0;exitDy=0;entryX=0.5;entryY=0;entryDx=0;entryDy=0;endArrow=none;endFill=0;" edge="1" parent="1" source="T9cRB7cxZAfNw0go3Zid-2" target="T9cRB7cxZAfNw0go3Zid-7">
          <mxGeometry relative="1" as="geometry" />
        </mxCell>
        <mxCell id="T9cRB7cxZAfNw0go3Zid-24" style="edgeStyle=orthogonalEdgeStyle;rounded=0;orthogonalLoop=1;jettySize=auto;html=1;exitX=0.5;exitY=1;exitDx=0;exitDy=0;entryX=0.5;entryY=0;entryDx=0;entryDy=0;endArrow=none;endFill=0;" edge="1" parent="1" source="T9cRB7cxZAfNw0go3Zid-2" target="T9cRB7cxZAfNw0go3Zid-8">
          <mxGeometry relative="1" as="geometry" />
        </mxCell>
        <mxCell id="T9cRB7cxZAfNw0go3Zid-2" value="管理员" style="rounded=0;whiteSpace=wrap;html=1;" vertex="1" parent="1">
          <mxGeometry x="310" y="220" width="110" height="30" as="geometry" />
        </mxCell>
        <mxCell id="T9cRB7cxZAfNw0go3Zid-25" style="edgeStyle=orthogonalEdgeStyle;rounded=0;orthogonalLoop=1;jettySize=auto;html=1;exitX=0.5;exitY=1;exitDx=0;exitDy=0;entryX=0.5;entryY=0;entryDx=0;entryDy=0;endArrow=none;endFill=0;" edge="1" parent="1" source="T9cRB7cxZAfNw0go3Zid-3" target="T9cRB7cxZAfNw0go3Zid-14">
          <mxGeometry relative="1" as="geometry" />
        </mxCell>
        <mxCell id="T9cRB7cxZAfNw0go3Zid-26" style="edgeStyle=orthogonalEdgeStyle;rounded=0;orthogonalLoop=1;jettySize=auto;html=1;exitX=0.5;exitY=1;exitDx=0;exitDy=0;entryX=0.5;entryY=0;entryDx=0;entryDy=0;endArrow=none;endFill=0;" edge="1" parent="1" source="T9cRB7cxZAfNw0go3Zid-3" target="T9cRB7cxZAfNw0go3Zid-15">
          <mxGeometry relative="1" as="geometry" />
        </mxCell>
        <mxCell id="T9cRB7cxZAfNw0go3Zid-27" style="edgeStyle=orthogonalEdgeStyle;rounded=0;orthogonalLoop=1;jettySize=auto;html=1;exitX=0.5;exitY=1;exitDx=0;exitDy=0;entryX=0.5;entryY=0;entryDx=0;entryDy=0;endArrow=none;endFill=0;" edge="1" parent="1" source="T9cRB7cxZAfNw0go3Zid-3" target="T9cRB7cxZAfNw0go3Zid-13">
          <mxGeometry relative="1" as="geometry" />
        </mxCell>
        <mxCell id="T9cRB7cxZAfNw0go3Zid-28" style="edgeStyle=orthogonalEdgeStyle;rounded=0;orthogonalLoop=1;jettySize=auto;html=1;exitX=0.5;exitY=1;exitDx=0;exitDy=0;entryX=0.5;entryY=0;entryDx=0;entryDy=0;endArrow=none;endFill=0;" edge="1" parent="1" source="T9cRB7cxZAfNw0go3Zid-3" target="T9cRB7cxZAfNw0go3Zid-12">
          <mxGeometry relative="1" as="geometry" />
        </mxCell>
        <mxCell id="T9cRB7cxZAfNw0go3Zid-3" value="普通用户" style="rounded=0;whiteSpace=wrap;html=1;" vertex="1" parent="1">
          <mxGeometry x="500" y="220" width="110" height="30" as="geometry" />
        </mxCell>
        <mxCell id="T9cRB7cxZAfNw0go3Zid-7" value="流程模型设计" style="rounded=0;whiteSpace=wrap;verticalAlign=middle;textDirection=vertical-lr;labelPosition=center;verticalLabelPosition=middle;align=center;html=1;" vertex="1" parent="1">
          <mxGeometry x="311" y="290" width="30" height="120" as="geometry" />
        </mxCell>
        <mxCell id="T9cRB7cxZAfNw0go3Zid-8" value="作业票设计" style="rounded=0;whiteSpace=wrap;verticalAlign=middle;textDirection=vertical-lr;labelPosition=center;verticalLabelPosition=middle;align=center;html=1;" vertex="1" parent="1">
          <mxGeometry x="272" y="290" width="30" height="120" as="geometry" />
        </mxCell>
        <mxCell id="T9cRB7cxZAfNw0go3Zid-9" value="流程定义管理" style="rounded=0;whiteSpace=wrap;verticalAlign=middle;textDirection=vertical-lr;labelPosition=center;verticalLabelPosition=middle;align=center;html=1;" vertex="1" parent="1">
          <mxGeometry x="389" y="290" width="30" height="120" as="geometry" />
        </mxCell>
        <mxCell id="T9cRB7cxZAfNw0go3Zid-10" value="流程部署管理" style="rounded=0;whiteSpace=wrap;verticalAlign=middle;textDirection=vertical-lr;labelPosition=center;verticalLabelPosition=middle;align=center;html=1;" vertex="1" parent="1">
          <mxGeometry x="350" y="290" width="30" height="120" as="geometry" />
        </mxCell>
        <mxCell id="T9cRB7cxZAfNw0go3Zid-12" value="作业申请" style="rounded=0;whiteSpace=wrap;verticalAlign=middle;textDirection=vertical-lr;labelPosition=center;verticalLabelPosition=middle;align=center;html=1;" vertex="1" parent="1">
          <mxGeometry x="480" y="290" width="30" height="120" as="geometry" />
        </mxCell>
        <mxCell id="T9cRB7cxZAfNw0go3Zid-13" value="作业审批" style="rounded=0;whiteSpace=wrap;verticalAlign=middle;textDirection=vertical-lr;labelPosition=center;verticalLabelPosition=middle;align=center;html=1;" vertex="1" parent="1">
          <mxGeometry x="520" y="290" width="30" height="120" as="geometry" />
        </mxCell>
        <mxCell id="T9cRB7cxZAfNw0go3Zid-14" value="作业查看" style="rounded=0;whiteSpace=wrap;verticalAlign=middle;textDirection=vertical-lr;labelPosition=center;verticalLabelPosition=middle;align=center;html=1;" vertex="1" parent="1">
          <mxGeometry x="560" y="290" width="30" height="120" as="geometry" />
        </mxCell>
        <mxCell id="T9cRB7cxZAfNw0go3Zid-15" value="作业监管" style="rounded=0;whiteSpace=wrap;verticalAlign=middle;textDirection=vertical-lr;labelPosition=center;verticalLabelPosition=middle;align=center;html=1;" vertex="1" parent="1">
          <mxGeometry x="600" y="290" width="30" height="120" as="geometry" />
        </mxCell>
        <mxCell id="T9cRB7cxZAfNw0go3Zid-16" value="系统用户管理" style="rounded=0;whiteSpace=wrap;verticalAlign=middle;textDirection=vertical-lr;labelPosition=center;verticalLabelPosition=middle;align=center;html=1;" vertex="1" parent="1">
          <mxGeometry x="428" y="290" width="30" height="120" as="geometry" />
        </mxCell>
        <mxCell id="T9cRB7cxZAfNw0go3Zid-18" value="" style="edgeStyle=orthogonalEdgeStyle;rounded=0;orthogonalLoop=1;jettySize=auto;html=1;endArrow=none;endFill=0;entryX=0.5;entryY=0;entryDx=0;entryDy=0;exitX=0.5;exitY=1;exitDx=0;exitDy=0;" edge="1" parent="1" source="T9cRB7cxZAfNw0go3Zid-2" target="T9cRB7cxZAfNw0go3Zid-9">
          <mxGeometry relative="1" as="geometry">
            <mxPoint x="375" y="260" as="sourcePoint" />
            <mxPoint x="369" y="290" as="targetPoint" />
          </mxGeometry>
        </mxCell>
        <mxCell id="T9cRB7cxZAfNw0go3Zid-20" value="" style="edgeStyle=orthogonalEdgeStyle;rounded=0;orthogonalLoop=1;jettySize=auto;html=1;endArrow=none;endFill=0;entryX=0.5;entryY=0;entryDx=0;entryDy=0;exitX=0.5;exitY=1;exitDx=0;exitDy=0;" edge="1" parent="1" source="T9cRB7cxZAfNw0go3Zid-2" target="T9cRB7cxZAfNw0go3Zid-16">
          <mxGeometry relative="1" as="geometry">
            <mxPoint x="375" y="260" as="sourcePoint" />
            <mxPoint x="409" y="290" as="targetPoint" />
          </mxGeometry>
        </mxCell>
      </root>
    </mxGraphModel>
  </diagram>
</mxfile>
